# xmcd
#
# Track frame offsets:
#	150
#	22228
#	42956
#	64515
#	84717
#	89836
#	120893
#	142942
#	169261
#	189692
#	217117
#
# Disc length: 2898 seconds
#
# Revision: 0
# Processed by: cddbd v1.5.2PL0 Copyright (c) Steve Scherf et al.
# Submitted via: dBpowerAMP V4.0
#
DISCID=9e0b500b
DTITLE=Enemy Unknown - Alert Status: Red
DYEAR=2005
DGENRE=Thrash Metal
TTITLE0=Feel the burn
TTITLE1=Where angels fear to tread
TTITLE2=Hatred of youth
TTITLE3=One above all
TTITLE4=Ellana
TTITLE5=Toe to toe
TTITLE6=The man
TTITLE7=Cut my throat
TTITLE8=The legion
TTITLE9=Terrorista
TTITLE10=Bonus track
EXTD=
EXTT0=
EXTT1=
EXTT2=
EXTT3=
EXTT4=
EXTT5=
EXTT6=
EXTT7=
EXTT8=
EXTT9=
EXTT10=
PLAYORDER=
